<svg width="28" height="29" viewBox="0 0 28 29" fill="none" xmlns="http://www.w3.org/2000/svg">
<g clip-path="url(#clip0_6012_7268)">
<path d="M0 9.88138V3.16401V0.0636902H25.4545L28 3.16401V9.88138M0 9.88138V26.4164L3.56364 29H25.4545L28 26.4164V9.88138M0 9.88138H9.67273L14.5185 8.33122L18.8364 9.88138H28" stroke="#FBF8F8"/>
<g filter="url(#filter0_d_6012_7268)">
<path d="M14.5195 10.6481C16.6731 10.6482 18.417 12.3878 18.417 14.5319C18.417 16.6759 16.6731 18.4155 14.5195 18.4156C12.3658 18.4156 10.6211 16.676 10.6211 14.5319C10.6211 12.3877 12.3658 10.6481 14.5195 10.6481Z" stroke="#F3E9E9" stroke-width="0.5"/>
</g>
<g filter="url(#filter1_d_6012_7268)">
<path d="M14.5195 8.83121C17.6811 8.83144 20.241 11.385 20.2412 14.5314C20.2412 17.678 17.6813 20.2323 14.5195 20.2326C11.3576 20.2326 8.79688 17.6781 8.79688 14.5314C8.79712 11.3849 11.3577 8.83121 14.5195 8.83121Z" stroke="#FEFEFE"/>
</g>
<line x1="4.16602" y1="4.26102" x2="4.16602" y2="3.19481e-05" stroke="white"/>
<line x1="6.75977" y1="6.26434" x2="6.75977" y2="0.0636992" stroke="white"/>
<rect x="20.2031" y="2.63055" width="3.14815" height="3.13376" stroke="white"/>
</g>
<defs>
<filter id="filter0_d_6012_7268" x="6.37109" y="10.3981" width="16.2969" height="16.2675" filterUnits="userSpaceOnUse" color-interpolation-filters="sRGB">
<feFlood flood-opacity="0" result="BackgroundImageFix"/>
<feColorMatrix in="SourceAlpha" type="matrix" values="0 0 0 0 0 0 0 0 0 0 0 0 0 0 0 0 0 0 127 0" result="hardAlpha"/>
<feOffset dy="4"/>
<feGaussianBlur stdDeviation="2"/>
<feColorMatrix type="matrix" values="0 0 0 0 0 0 0 0 0 0 0 0 0 0 0 0 0 0 0.25 0"/>
<feBlend mode="normal" in2="BackgroundImageFix" result="effect1_dropShadow_6012_7268"/>
<feBlend mode="normal" in="SourceGraphic" in2="effect1_dropShadow_6012_7268" result="shape"/>
</filter>
<filter id="filter1_d_6012_7268" x="4.29688" y="8.33121" width="20.4453" height="20.4013" filterUnits="userSpaceOnUse" color-interpolation-filters="sRGB">
<feFlood flood-opacity="0" result="BackgroundImageFix"/>
<feColorMatrix in="SourceAlpha" type="matrix" values="0 0 0 0 0 0 0 0 0 0 0 0 0 0 0 0 0 0 127 0" result="hardAlpha"/>
<feOffset dy="4"/>
<feGaussianBlur stdDeviation="2"/>
<feColorMatrix type="matrix" values="0 0 0 0 0 0 0 0 0 0 0 0 0 0 0 0 0 0 0.25 0"/>
<feBlend mode="normal" in2="BackgroundImageFix" result="effect1_dropShadow_6012_7268"/>
<feBlend mode="normal" in="SourceGraphic" in2="effect1_dropShadow_6012_7268" result="shape"/>
</filter>
<clipPath id="clip0_6012_7268">
<rect width="28" height="29" fill="white"/>
</clipPath>
</defs>
</svg>
